<svg version="1.1" viewBox="0 0 16 16" xmlns="http://www.w3.org/2000/svg"><path d="m9.0439 2.3577a0.56012 0.55997 0 1 0-0.98888-0.52622l-0.47708 0.89905a0.56012 0.55997 0 0 0 0.98888 0.52622zm-4.2243-0.83635a0.56043 0.56028 0 1 0-1.0718 0.32805l0.29902 0.97406a0.55996 0.55981 0 0 0 1.0706-0.32805zm-2.2577 5.5163c0 0.67625 0.20046 1.3055 0.54428 1.8328 0.41101-0.28998 0.88137-0.50382 1.3887-0.61691a5.0508 5.0494 0 0 1 3.9869-3.3924 3.3597 3.3588 0 0 0-5.9199 2.1765m-1.3215-3.1192a0.56012 0.55997 0 1 0-0.52636 0.98862l0.89929 0.47695a0.56012 0.55997 0 0 0 0.52636-0.98862zm0.46588 4.9968a0.55996 0.55981 0 0 0-0.32813-1.0703l-0.97432 0.29782a0.55996 0.55981 0 1 0 0.32813 1.0703z" fill="#fc0" stroke-width="1.1198"/><path d="m9.2802 5.9181a3.9197 3.9186 0 0 0-3.8794 3.3588h-0.039197a2.7998 2.799 0 0 0 0 5.5981h7.8394a2.7998 2.799 0 0 0 0-5.5981h-0.04143a3.9197 3.9186 0 0 0-3.8783-3.3588" fill="#e6e6e6" stroke-width="1.1198"/></svg>
