<svg version="1.1" viewBox="0 0 16 16.001" xmlns="http://www.w3.org/2000/svg"><g transform="matrix(.8 0 0 .8 -1.6 -1.5987)"><path d="m3 20h18a1 1 0 0 1 0 2h-18a1 1 0 0 1 0-2" fill="#ccc"/><path d="m12.707 2.293 3 3a1 1 0 1 1-1.414 1.414l-1.293-1.292v3.585a1 1 0 0 1-0.883 0.993l-0.117 7e-3a1 1 0 0 1-1-1v-3.586l-1.293 1.293a1 1 0 0 1-1.414-1.414l2.958-2.96a1 1 0 0 1 0.15-0.135l0.127-0.08 0.068-0.033 0.11-0.041 0.12-0.029c0.3-0.055 0.627 0.024 0.881 0.278" fill="#ccc"/><path d="m12 12a5 5 0 0 1 4.583 7.002h-9.166a5 5 0 0 1 4.583-7.002m-8 4a1 1 0 0 1 0 2h-1a1 1 0 0 1 0-2zm17 0a1 1 0 0 1 0 2h-1a1 1 0 0 1 0-2zm-14.693-6.107 0.7 0.7a1 1 0 0 1-1.414 1.414l-0.7-0.7a1 1 0 0 1 1.414-1.414m12.8 0a1 1 0 0 1 0 1.414l-0.7 0.7a1 1 0 0 1-1.414-1.414l0.7-0.7a1 1 0 0 1 1.414 0" fill="#ffd42a"/></g></svg>
