<svg version="1.1" viewBox="0 0 16 16" xmlns="http://www.w3.org/2000/svg"><g stroke-width=".8"><path d="m0.8 14.4h14.4a0.8 0.8 0 0 1 0 1.6h-14.4a0.8 0.8 0 0 1 0-1.6" fill="#ccc"/><path d="m8 0a0.8 0.8 0 0 1 0.8 0.8v2.8672l1.0344-1.0328a0.8 0.8 0 0 1 1.056-0.0664l0.0752 0.0664a0.8 0.8 0 0 1 0 1.1312l-2.4 2.4a0.784 0.784 0 0 1-0.6136 0.2344l-0.0992-0.0136-0.1016-0.0256-0.0832-0.032-0.092-0.0504a0.8 0.8 0 0 1-0.1208-0.0912l-2.4208-2.4216a0.8 0.8 0 0 1 1.1312-1.1312l1.0344 1.0336v-2.868a0.8 0.8 0 0 1 0.8-0.8" fill="#ccc"/><path d="m1.6 11.2a0.8 0.8 0 0 1 0 1.6h-0.8a0.8 0.8 0 0 1 0-1.6zm13.6 0a0.8 0.8 0 0 1 0 1.6h-0.8a0.8 0.8 0 0 1 0-1.6zm-11.754-4.8856 0.56 0.56a0.8 0.8 0 0 1-1.1312 1.1312l-0.56-0.56a0.8 0.8 0 0 1 1.1312-1.1312m10.24 0a0.8 0.8 0 0 1 0 1.1312l-0.56 0.56a0.8 0.8 0 0 1-1.1312-1.1312l0.56-0.56a0.8 0.8 0 0 1 1.1312 0m-5.6856 1.6856a4 4 0 0 1 3.6664 5.6016h-7.3328a4 4 0 0 1 3.6664-5.6016" fill="#ffd42a"/></g></svg>
